#define favicon_width 16
#define favicon_height 16
static unsigned char favicon_bits[] = {
   0x00, 0x00, 0x38, 0x70, 0x7c, 0x50, 0x7e, 0x50, 0xff, 0x00, 0xfd, 0x60,
   0xfd, 0x20, 0x79, 0x30, 0x3d, 0x00, 0x3f, 0x70, 0x3f, 0x30, 0x7f, 0x10,
   0xff, 0x00, 0xff, 0x50, 0xff, 0x70, 0x7f, 0x70 };
